<svg id="Layer_1" data-name="Layer 1" xmlns="http://www.w3.org/2000/svg" viewBox="0 0 1080 1080"><path d="M540,80A460.14,460.14,0,0,1,719,963.88,460.14,460.14,0,0,1,361,116.12,457,457,0,0,1,540,80m0-80C241.77,0,0,241.77,0,540s241.77,540,540,540,540-241.77,540-540S838.23,0,540,0Z" style="fill:#fff"/><path d="M381.43,694.71A205.49,205.49,0,0,1,339,690.34a179.61,179.61,0,0,1-38.89-12.83,155.33,155.33,0,0,1-32.74-20.33l26.48-47.12a128.49,128.49,0,0,0,40.45,22.21,145.15,145.15,0,0,0,47.13,7.81q27.93,0,43.37-9.48t15.43-26.8v-.2q0-13.14-7.72-20.13t-20.33-10.32a269.25,269.25,0,0,0-27.42-5.63q-17.72-2.7-35.86-6.77a116.35,116.35,0,0,1-33.36-12.93A66,66,0,0,1,291,522.48q-9.29-16.46-9.28-44v-.21q0-44.41,29.19-68.7t82.57-24.29a161.87,161.87,0,0,1,50,8.23A179.12,179.12,0,0,1,490.9,417l-24.19,48.37a146.67,146.67,0,0,0-36.6-18.87,112.18,112.18,0,0,0-36.59-6.56q-26.26,0-40.66,8.65t-14.39,24.29v.21q0,14.6,8.55,22.1t22.31,11.16q13.77,3.65,29.61,6.77,17.52,3.35,34.82,8.24a119,119,0,0,1,31.7,14.07,66.12,66.12,0,0,1,22.93,25.23q8.55,16.07,8.55,41.7v.42q0,43.79-30.23,67.87T381.43,694.71Z" style="fill:#fff"/><path d="M600.78,653.22l53.8-264.81h23.14l53.8,264.81,48.37-264.81h32.74L749,691.59H713L667.5,461.18l-48,230.41H583.27L519.88,388.41h32.73Z" style="fill:#fff"/></svg>